<mxfile host="65bd71144e">
    <diagram id="sOgit6qVR2P3Kg9Deix3" name="Page-1">
        <mxGraphModel dx="696" dy="370" grid="1" gridSize="6" guides="1" tooltips="1" connect="1" arrows="1" fold="1" page="1" pageScale="1" pageWidth="827" pageHeight="1169" background="#000000" math="0" shadow="0">
            <root>
                <mxCell id="0"/>
                <mxCell id="1" parent="0"/>
                <mxCell id="9" value="" style="edgeStyle=none;html=1;fontColor=#FFFFFF;strokeColor=#FFFFFF;rounded=0;" parent="1" source="3" target="5" edge="1">
                    <mxGeometry relative="1" as="geometry"/>
                </mxCell>
                <mxCell id="3" value="Begin" style="rounded=1;whiteSpace=wrap;html=1;fillColor=#666666;strokeColor=#3A5431;fontColor=#ffffff;" parent="1" vertex="1">
                    <mxGeometry x="24" y="24" width="120" height="72" as="geometry"/>
                </mxCell>
                <mxCell id="13" value="" style="edgeStyle=none;rounded=0;html=1;strokeColor=#FFFFFF;fontColor=#FFFFFF;" parent="1" source="5" target="10" edge="1">
                    <mxGeometry relative="1" as="geometry"/>
                </mxCell>
                <mxCell id="5" value="int m&lt;br&gt;int n" style="shape=parallelogram;perimeter=parallelogramPerimeter;whiteSpace=wrap;html=1;fixedSize=1;fillColor=#666666;fontColor=#FFFFFF;" parent="1" vertex="1">
                    <mxGeometry x="24" y="144" width="120" height="72" as="geometry"/>
                </mxCell>
                <mxCell id="15" value="" style="edgeStyle=none;rounded=0;html=1;strokeColor=#990099;fontColor=#FFFFFF;" parent="1" source="10" target="14" edge="1">
                    <mxGeometry relative="1" as="geometry">
                        <Array as="points"/>
                    </mxGeometry>
                </mxCell>
                <mxCell id="20" value="" style="edgeStyle=none;rounded=0;html=1;strokeColor=#990099;fontColor=#00CC00;" parent="1" source="10" target="19" edge="1">
                    <mxGeometry relative="1" as="geometry"/>
                </mxCell>
                <mxCell id="17" value="" style="edgeStyle=none;rounded=0;html=1;strokeColor=#FFFFFF;fontColor=#FFFFFF;exitX=1;exitY=0.5;exitDx=0;exitDy=0;" parent="1" source="14" target="16" edge="1">
                    <mxGeometry relative="1" as="geometry">
                        <Array as="points"/>
                    </mxGeometry>
                </mxCell>
                <mxCell id="14" value="Console.WriteLine&lt;br&gt;(Error)" style="shape=document;whiteSpace=wrap;html=1;boundedLbl=1;fontColor=#FFFFFF;fillColor=#666666;" parent="1" vertex="1">
                    <mxGeometry x="360" y="144" width="120" height="72" as="geometry"/>
                </mxCell>
                <mxCell id="16" value="End" style="rounded=1;whiteSpace=wrap;html=1;fontColor=#FFFFFF;fillColor=#666666;" parent="1" vertex="1">
                    <mxGeometry x="528" y="144" width="120" height="72" as="geometry"/>
                </mxCell>
                <mxCell id="18" value="Yes" style="text;html=1;align=center;verticalAlign=middle;resizable=0;points=[];autosize=1;strokeColor=none;fillColor=none;fontColor=#009900;fontStyle=1" parent="1" vertex="1">
                    <mxGeometry x="318" y="390" width="42" height="30" as="geometry"/>
                </mxCell>
                <mxCell id="56" value="" style="edgeStyle=none;rounded=0;html=1;strokeColor=#0000CC;fontColor=#FFFFFF;" parent="1" source="19" target="23" edge="1">
                    <mxGeometry relative="1" as="geometry"/>
                </mxCell>
                <mxCell id="19" value="&lt;font color=&quot;#ffffff&quot;&gt;ack(m, n)&lt;/font&gt;" style="shape=process;whiteSpace=wrap;html=1;backgroundOutline=1;fontColor=#00CC00;fillColor=#666666;strokeColor=#0000CC;" parent="1" vertex="1">
                    <mxGeometry x="192" y="264" width="120" height="72" as="geometry"/>
                </mxCell>
                <mxCell id="22" value="&lt;b&gt;No&lt;/b&gt;" style="text;html=1;align=center;verticalAlign=middle;resizable=0;points=[];autosize=1;strokeColor=none;fillColor=none;fontColor=#FF0000;" parent="1" vertex="1">
                    <mxGeometry x="420" y="457" width="35" height="30" as="geometry"/>
                </mxCell>
                <mxCell id="57" value="" style="edgeStyle=none;rounded=0;html=1;strokeColor=#0000CC;fontColor=#FFFFFF;" parent="1" source="23" target="35" edge="1">
                    <mxGeometry relative="1" as="geometry"/>
                </mxCell>
                <mxCell id="66" value="" style="edgeStyle=none;rounded=0;html=1;strokeColor=#0000CC;fontColor=#009900;" parent="1" source="23" target="49" edge="1">
                    <mxGeometry relative="1" as="geometry"/>
                </mxCell>
                <mxCell id="23" value="if (m == 0)" style="rhombus;whiteSpace=wrap;html=1;strokeColor=#0000CC;fontColor=#FFFFFF;fillColor=#666666;" parent="1" vertex="1">
                    <mxGeometry x="360" y="264" width="120" height="72" as="geometry"/>
                </mxCell>
                <mxCell id="46" value="" style="edgeStyle=none;rounded=0;html=1;strokeColor=#00FFFF;fontColor=#FFFFFF;" parent="1" source="35" target="45" edge="1">
                    <mxGeometry relative="1" as="geometry"/>
                </mxCell>
                <mxCell id="54" value="" style="edgeStyle=none;rounded=0;html=1;strokeColor=#00FFFF;fontColor=#FFFFFF;" parent="1" source="35" target="47" edge="1">
                    <mxGeometry relative="1" as="geometry"/>
                </mxCell>
                <mxCell id="35" value="&lt;font color=&quot;#ffffff&quot;&gt;else if&lt;br&gt;(n == 0)&lt;br&gt;&lt;/font&gt;" style="rhombus;whiteSpace=wrap;html=1;strokeColor=#00FFFF;fontColor=#00CC00;fillColor=#666666;" parent="1" vertex="1">
                    <mxGeometry x="360" y="385" width="120" height="71" as="geometry"/>
                </mxCell>
                <mxCell id="44" value="" style="edgeStyle=none;rounded=0;html=1;strokeColor=#00FFFF;fontColor=#FFFFFF;entryX=0.5;entryY=1;entryDx=0;entryDy=0;" parent="1" source="47" target="19" edge="1">
                    <mxGeometry relative="1" as="geometry">
                        <mxPoint x="252" y="506" as="sourcePoint"/>
                        <Array as="points"/>
                    </mxGeometry>
                </mxCell>
                <mxCell id="10" value="if (m &amp;lt; 0&amp;nbsp;&lt;br&gt;|| n &amp;lt; 0)" style="rhombus;whiteSpace=wrap;html=1;fontColor=#FFFFFF;fillColor=#666666;strokeColor=#990099;" parent="1" vertex="1">
                    <mxGeometry x="192" y="144" width="120" height="72" as="geometry"/>
                </mxCell>
                <mxCell id="60" value="" style="edgeStyle=none;rounded=0;html=1;strokeColor=#00FF00;fontColor=#FFFFFF;" parent="1" source="45" target="58" edge="1">
                    <mxGeometry relative="1" as="geometry"/>
                </mxCell>
                <mxCell id="45" value="else" style="rhombus;whiteSpace=wrap;html=1;strokeColor=#00FF00;fontColor=#FFFFFF;fillColor=#666666;" parent="1" vertex="1">
                    <mxGeometry x="360" y="505" width="120" height="71" as="geometry"/>
                </mxCell>
                <mxCell id="47" value="return&lt;br&gt;ack(m - 1, 1)" style="rounded=0;whiteSpace=wrap;html=1;strokeColor=#00FFFF;fontColor=#FFFFFF;fillColor=#666666;" parent="1" vertex="1">
                    <mxGeometry x="192" y="385" width="120" height="72" as="geometry"/>
                </mxCell>
                <mxCell id="51" value="" style="edgeStyle=none;rounded=0;html=1;strokeColor=#FFFFFF;fontColor=#FFFFFF;entryX=0.5;entryY=1;entryDx=0;entryDy=0;" parent="1" source="49" target="16" edge="1">
                    <mxGeometry relative="1" as="geometry">
                        <mxPoint x="588" y="336" as="targetPoint"/>
                    </mxGeometry>
                </mxCell>
                <mxCell id="49" value="return&lt;br&gt;n + 1" style="rounded=0;whiteSpace=wrap;html=1;strokeColor=#0000CC;fontColor=#FFFFFF;fillColor=#666666;" parent="1" vertex="1">
                    <mxGeometry x="528" y="263" width="120" height="72" as="geometry"/>
                </mxCell>
                <mxCell id="59" style="edgeStyle=none;rounded=0;html=1;entryX=0;entryY=0.5;entryDx=0;entryDy=0;strokeColor=#00FF00;fontColor=#FFFFFF;exitX=0;exitY=0.5;exitDx=0;exitDy=0;" parent="1" source="58" target="19" edge="1">
                    <mxGeometry relative="1" as="geometry">
                        <Array as="points">
                            <mxPoint x="96" y="541"/>
                            <mxPoint x="96" y="300"/>
                        </Array>
                    </mxGeometry>
                </mxCell>
                <mxCell id="58" value="return&lt;br&gt;ack(m -1, &lt;br&gt;ack( m, n - 1))" style="rounded=0;whiteSpace=wrap;html=1;strokeColor=#00FF00;fontColor=#FFFFFF;fillColor=#666666;" parent="1" vertex="1">
                    <mxGeometry x="192" y="505" width="120" height="71" as="geometry"/>
                </mxCell>
                <mxCell id="61" value="&lt;b&gt;No&lt;/b&gt;" style="text;html=1;align=center;verticalAlign=middle;resizable=0;points=[];autosize=1;strokeColor=none;fillColor=none;fontColor=#FF0000;" parent="1" vertex="1">
                    <mxGeometry x="252" y="216" width="35" height="30" as="geometry"/>
                </mxCell>
                <mxCell id="62" value="&lt;b&gt;No&lt;/b&gt;" style="text;html=1;align=center;verticalAlign=middle;resizable=0;points=[];autosize=1;strokeColor=none;fillColor=none;fontColor=#FF0000;" parent="1" vertex="1">
                    <mxGeometry x="420" y="335" width="35" height="30" as="geometry"/>
                </mxCell>
                <mxCell id="63" value="Yes" style="text;html=1;align=center;verticalAlign=middle;resizable=0;points=[];autosize=1;strokeColor=none;fillColor=none;fontColor=#009900;fontStyle=1" parent="1" vertex="1">
                    <mxGeometry x="480" y="270" width="42" height="30" as="geometry"/>
                </mxCell>
                <mxCell id="65" value="Yes" style="text;html=1;align=center;verticalAlign=middle;resizable=0;points=[];autosize=1;strokeColor=none;fillColor=none;fontColor=#009900;fontStyle=1" parent="1" vertex="1">
                    <mxGeometry x="312" y="150" width="42" height="30" as="geometry"/>
                </mxCell>
            </root>
        </mxGraphModel>
    </diagram>
</mxfile>